<?xml version="1.0" standalone="no"?>
<!DOCTYPE svg PUBLIC "-//W3C//DTD SVG 20010904//EN"
 "http://www.w3.org/TR/2001/REC-SVG-20010904/DTD/svg10.dtd">
<svg version="1.0" xmlns="http://www.w3.org/2000/svg"
 width="261.000000pt" height="261.000000pt" viewBox="0 0 261.000000 261.000000"
 preserveAspectRatio="xMidYMid meet">
<metadata>
Created by potrace 1.11, written by Peter Selinger 2001-2013
</metadata>
<g transform="translate(0.000000,261.000000) scale(0.100000,-0.100000)"
fill="#000000" stroke="none">
<path d="M751 2599 c-341 -25 -540 -129 -646 -339 -86 -171 -97 -260 -102
-863 -7 -684 10 -857 98 -1036 97 -197 265 -300 557 -342 43 -6 276 -13 520
-16 758 -9 970 18 1157 151 110 79 188 204 225 358 32 138 41 239 47 556 l6
302 -314 -2 -314 -3 -3 -363 c-1 -240 1 -378 9 -405 15 -58 58 -97 106 -97 41
0 100 30 110 56 4 12 24 -3 84 -62 44 -43 79 -84 79 -90 0 -22 -101 -106 -158
-131 -44 -20 -79 -27 -153 -31 -167 -8 -267 39 -324 153 l-30 60 -3 458 -3
457 -418 0 c-258 0 -440 -4 -476 -11 -123 -23 -216 -92 -270 -202 -114 -233
-35 -517 174 -620 61 -30 72 -32 171 -32 96 0 110 3 165 29 32 16 79 50 103
74 l43 45 92 -92 92 -92 -67 -64 c-113 -108 -225 -153 -403 -162 -140 -7 -238
12 -355 69 -165 82 -297 248 -347 438 -23 89 -23 282 0 370 64 239 236 416
472 486 53 15 117 18 543 21 l482 4 0 490 0 489 -417 -1 c-230 -1 -469 -6
-532 -10z"/>
<path d="M1980 2105 l0 -475 315 0 315 0 -5 28 c-2 15 -7 83 -10 152 -19 444
-158 657 -488 750 -40 11 -85 20 -100 20 l-27 0 0 -475z"/>
</g>
</svg>
